<?xml version="1.0" encoding="iso-8859-1"?>
<!-- Uploaded to: SVG Repo, www.svgrepo.com, Generator: SVG Repo Mixer Tools -->
<svg height="800px" width="800px" version="1.1" id="Capa_1" xmlns="http://www.w3.org/2000/svg" xmlns:xlink="http://www.w3.org/1999/xlink" 
	 viewBox="0 0 511.998 511.998" xml:space="preserve">
<path style="fill:#DC73AE;" d="M491.788,165.043h-94.327c-11.162,0-20.21,9.049-20.21,20.21
	c0,92.882-75.563,168.444-168.443,168.444c-92.093,0-166.06-72.076-168.393-164.086c-0.28-10.981-9.267-19.698-20.194-19.698
	c-0.155,0-0.314,0.003-0.47,0.005c-11.14,0.253-19.973,9.476-19.747,20.615c1.366,67.279,28.598,130.313,76.677,177.488
	c48.149,47.243,111.822,73.261,179.289,73.261c141.175,0,256.028-114.854,256.028-256.028
	C511.998,174.092,502.949,165.043,491.788,165.043z"/>
<path style="fill:#9E8CEC;" d="M339.066,185.26c0-5.336-2.157-10.536-5.93-14.296c-3.116-3.119-7.229-5.12-11.577-5.718
	c-9.496-53.645-56.423-94.53-112.753-94.53c-63.158,0-114.541,51.382-114.541,114.538s51.383,114.538,114.541,114.538
	c56.329,0,103.258-40.884,112.753-94.53c4.348-0.6,8.46-2.602,11.577-5.72C336.91,195.782,339.066,190.581,339.066,185.26z"/>
<path style="fill:#6A56CF;" d="M333.136,170.965c-3.116-3.119-7.229-5.12-11.577-5.718c-9.496-53.645-56.423-94.53-112.753-94.53
	v229.076c56.329,0,103.258-40.884,112.753-94.53c4.348-0.6,8.46-2.602,11.577-5.72c3.774-3.759,5.93-8.96,5.93-14.282
	C339.066,179.925,336.91,174.724,333.136,170.965z"/>
<path style="fill:#DA50A1;" d="M511.998,185.254c0-11.162-9.049-20.21-20.21-20.21h-94.327c-11.162,0-20.21,9.049-20.21,20.21
	c0,76.503-51.27,141.251-121.252,161.708v94.321C397.161,441.267,511.998,326.418,511.998,185.254z"/>
</svg>